<svg width="189" height="99" viewBox="0 0 189 99" fill="none" xmlns="http://www.w3.org/2000/svg">
<path d="M109.005 23.0021C-136.798 34.281 118.337 43.5015 114.647 56.45C108.345 78.5647 83.0077 84.8912 60.5866 79.7857C38.5597 74.77 24.013 59.1227 22.0825 36.6146C20.2874 15.684 43.6649 2 43.6649 2C43.6649 2 99.2815 43.2264 142.064 30.7807" stroke="#0A3179" stroke-width="3"/>
<g filter="url(#filter0_d_20_33)">
<path d="M105.217 26.8768C107.519 26.1061 108.571 22.921 108.571 22.921C108.571 22.921 101.939 22.5747 101.914 22.4668C101.917 22.4606 101.917 22.4598 101.914 22.4648C101.914 22.4654 101.914 22.4661 101.914 22.4668C101.852 22.5921 100.593 24.9 98.8867 25.8916L98.0313 26.0941L98.487 28.0187L100.034 27.8781L100.085 28.0919C100.085 28.0919 102.916 27.6475 105.217 26.8768Z" fill="#E9153B" stroke="#E9153B"/>
<path d="M101.522 11.264C103.925 10.9208 106.294 13.2958 106.294 13.2958C106.294 13.2958 100.521 16.5792 100.547 16.687C100.552 16.6911 100.553 16.6918 100.548 16.6887C100.548 16.6882 100.547 16.6877 100.547 16.687C100.435 16.603 98.275 15.1045 96.3053 14.9833L95.4499 15.1858L94.9943 13.2613L96.4405 12.693L96.3899 12.4792C96.3899 12.4792 99.1192 11.6072 101.522 11.264Z" fill="#E9153B" stroke="#E9153B"/>
<path d="M99.6407 16.6774L100.068 16.5762L101.587 22.9914L101.16 23.0926L101.109 22.8788L100.254 23.0813L100.203 22.8675L98.836 17.0938L99.6913 16.8913L99.6407 16.6774Z" fill="url(#paint0_linear_20_33)" stroke="#9A9A9C"/>
<path d="M98.4086 17.1951L98.6224 17.1444L100.091 23.3458L99.8769 23.3964L99.2354 23.5483L99.1735 24.2405L98.6951 24.1279L98.0536 24.2798L97.5134 24.8593L96.2303 25.1631L93.8781 25.7201L91.9029 25.9619L91.374 25.6355L90.4173 25.4104L91.2727 25.2078L91.1714 24.7802L91.3853 24.7295L91.3346 24.5157L91.7623 24.4144L92.19 24.3132L92.0887 23.8855L91.8749 23.9361L91.6104 23.7729L91.3966 23.8235L90.9689 23.9248L90.8676 23.4971L89.7984 23.7503L89.534 23.5871L89.1063 23.6883L88.3635 23.4125L87.7726 23.7783L87.8852 23.3L87.2437 23.4519L87.0298 23.5025L85.91 23.5418L86.3377 23.4405L86.2364 23.0129L86.4503 22.9622L87.0918 22.8103L87.2044 22.332L88.0597 22.1295L88.1723 21.6512L88.3861 21.6006L89.0277 21.4487L88.977 21.2348L89.4047 21.1336L89.5679 20.8691L90.2094 20.7172L90.4233 20.6666L91.0648 20.5147L90.9635 20.087L91.1774 20.0364L91.0761 19.6087L90.8623 19.6593L90.2207 19.8112L89.9056 19.4342L89.478 19.5354L89.2135 19.3722L88.8478 18.7813L89.2754 18.6801L90.3446 18.4269L90.294 18.2131L92.2186 17.7574L94.7846 17.1498L96.7092 16.6941L96.9737 16.8573L97.4014 16.7561L97.5026 17.1837L97.9303 17.0825L98.3073 16.7674L98.4086 17.1951Z" fill="url(#paint1_radial_20_33)" stroke="#F2A905"/>
<path d="M112.005 12.6195L117.227 12.738L118.645 18.7255L116.309 20.3074L113.946 21.7703L108.51 23.6093L104.244 23.716L101.751 22.7254L100.283 16.5241L102.168 14.9485L106.029 13.1312L112.005 12.6195Z" fill="#E7E8EA" stroke="#DCDCDC"/>
<circle cx="112.804" cy="16.9479" r="2.35678" transform="rotate(76.6792 112.804 16.9479)" fill="#35B1E4" stroke="#E9153B"/>
<path d="M118.835 18.5813L117.468 12.8076C119.364 13.2321 121.954 14.3571 122.403 14.5749C122.853 14.7927 122.924 14.8214 122.555 15.2164C122.588 15.2322 120.468 17.4424 118.835 18.5813Z" fill="#E9153B" stroke="#E9153B"/>
</g>
<path d="M124.512 38.136C125.024 38.136 125.557 38.264 126.112 38.52C126.667 38.776 127.093 39.1387 127.392 39.608L143.648 64.376L140.896 64.248L157.472 39.608C158.155 38.6267 159.029 38.136 160.096 38.136C160.949 38.136 161.696 38.456 162.336 39.096C163.019 39.6933 163.36 40.4613 163.36 41.4V79.736C163.36 80.6747 163.061 81.464 162.464 82.104C161.867 82.7013 161.077 83 160.096 83C159.072 83 158.24 82.7013 157.6 82.104C157.003 81.464 156.704 80.6747 156.704 79.736V47.288L158.752 47.736L144.672 69.176C144.373 69.56 143.989 69.9013 143.52 70.2C143.051 70.456 142.56 70.5627 142.048 70.52C141.579 70.5627 141.088 70.456 140.576 70.2C140.107 69.9013 139.723 69.56 139.424 69.176L125.856 48.056L127.392 45.496V79.736C127.392 80.6747 127.093 81.464 126.496 82.104C125.941 82.7013 125.195 83 124.256 83C123.36 83 122.613 82.7013 122.016 82.104C121.461 81.464 121.184 80.6747 121.184 79.736V41.4C121.184 40.504 121.504 39.736 122.144 39.096C122.827 38.456 123.616 38.136 124.512 38.136Z" fill="#2C7A7B"/>
<path d="M160.448 38.2H182.592C183.488 38.2 184.235 38.4987 184.832 39.096C185.472 39.6933 185.792 40.44 185.792 41.336C185.792 42.232 185.472 42.9573 184.832 43.512C184.235 44.0667 183.488 44.344 182.592 44.344H163.264L163.904 43.256V57.592L163.328 56.952H179.712C180.608 56.952 181.355 57.2507 181.952 57.848C182.592 58.4453 182.912 59.2133 182.912 60.152C182.912 61.048 182.592 61.7733 181.952 62.328C181.355 62.8827 180.608 63.16 179.712 63.16H163.456L163.904 62.584V77.368L163.456 76.856H182.592C183.488 76.856 184.235 77.176 184.832 77.816C185.472 78.4133 185.792 79.1173 185.792 79.928C185.792 80.824 185.472 81.5707 184.832 82.168C184.235 82.7227 183.488 83 182.592 83H160.448C159.552 83 158.784 82.7013 158.144 82.104C157.504 81.464 157.184 80.6747 157.184 79.736V41.464C157.184 40.5253 157.504 39.7573 158.144 39.16C158.784 38.52 159.552 38.2 160.448 38.2Z" fill="#2C7A7B"/>
<path d="M121.463 86.289C121.551 86.289 121.643 86.311 121.738 86.355C121.833 86.399 121.907 86.4613 121.958 86.542L124.752 90.799L124.279 90.777L127.128 86.542C127.245 86.3733 127.396 86.289 127.579 86.289C127.726 86.289 127.854 86.344 127.964 86.454C128.081 86.5567 128.14 86.6887 128.14 86.85V93.439C128.14 93.6003 128.089 93.736 127.986 93.846C127.883 93.9487 127.748 94 127.579 94C127.403 94 127.26 93.9487 127.15 93.846C127.047 93.736 126.996 93.6003 126.996 93.439V87.862L127.348 87.939L124.928 91.624C124.877 91.69 124.811 91.7487 124.73 91.8C124.649 91.844 124.565 91.8623 124.477 91.855C124.396 91.8623 124.312 91.844 124.224 91.8C124.143 91.7487 124.077 91.69 124.026 91.624L121.694 87.994L121.958 87.554V93.439C121.958 93.6003 121.907 93.736 121.804 93.846C121.709 93.9487 121.58 94 121.419 94C121.265 94 121.137 93.9487 121.034 93.846C120.939 93.736 120.891 93.6003 120.891 93.439V86.85C120.891 86.696 120.946 86.564 121.056 86.454C121.173 86.344 121.309 86.289 121.463 86.289ZM136.889 86.3H140.695C140.849 86.3 140.977 86.3513 141.08 86.454C141.19 86.5567 141.245 86.685 141.245 86.839C141.245 86.993 141.19 87.1177 141.08 87.213C140.977 87.3083 140.849 87.356 140.695 87.356H137.373L137.483 87.169V89.633L137.384 89.523H140.2C140.354 89.523 140.482 89.5743 140.585 89.677C140.695 89.7797 140.75 89.9117 140.75 90.073C140.75 90.227 140.695 90.3517 140.585 90.447C140.482 90.5423 140.354 90.59 140.2 90.59H137.406L137.483 90.491V93.032L137.406 92.944H140.695C140.849 92.944 140.977 92.999 141.08 93.109C141.19 93.2117 141.245 93.3327 141.245 93.472C141.245 93.626 141.19 93.7543 141.08 93.857C140.977 93.9523 140.849 94 140.695 94H136.889C136.735 94 136.603 93.9487 136.493 93.846C136.383 93.736 136.328 93.6003 136.328 93.439V86.861C136.328 86.6997 136.383 86.5677 136.493 86.465C136.603 86.355 136.735 86.3 136.889 86.3ZM158.319 94.11C157.791 94.11 157.321 94.0367 156.911 93.89C156.5 93.7433 156.108 93.5013 155.734 93.164C155.653 93.1053 155.591 93.0357 155.547 92.955C155.51 92.867 155.492 92.779 155.492 92.691C155.492 92.5517 155.543 92.427 155.646 92.317C155.748 92.207 155.877 92.152 156.031 92.152C156.148 92.152 156.258 92.1923 156.361 92.273C156.639 92.5297 156.929 92.724 157.23 92.856C157.538 92.988 157.897 93.054 158.308 93.054C158.601 93.054 158.869 93.0063 159.111 92.911C159.36 92.8157 159.558 92.6873 159.705 92.526C159.851 92.3647 159.925 92.1777 159.925 91.965C159.925 91.701 159.848 91.4847 159.694 91.316C159.547 91.14 159.331 90.997 159.045 90.887C158.766 90.7697 158.429 90.6707 158.033 90.59C157.666 90.524 157.336 90.4323 157.043 90.315C156.757 90.1977 156.511 90.051 156.306 89.875C156.1 89.6917 155.943 89.4753 155.833 89.226C155.723 88.9767 155.668 88.687 155.668 88.357C155.668 87.9097 155.785 87.5247 156.02 87.202C156.254 86.8793 156.573 86.63 156.977 86.454C157.38 86.278 157.835 86.19 158.341 86.19C158.803 86.19 159.235 86.2633 159.639 86.41C160.042 86.5493 160.368 86.74 160.617 86.982C160.794 87.136 160.882 87.301 160.882 87.477C160.882 87.609 160.827 87.7337 160.716 87.851C160.614 87.961 160.493 88.016 160.354 88.016C160.251 88.016 160.163 87.9867 160.09 87.928C159.972 87.8033 159.815 87.6933 159.617 87.598C159.419 87.4953 159.206 87.411 158.979 87.345C158.759 87.279 158.546 87.246 158.341 87.246C158.011 87.246 157.728 87.2937 157.494 87.389C157.259 87.477 157.079 87.6017 156.955 87.763C156.83 87.917 156.768 88.1003 156.768 88.313C156.768 88.5623 156.837 88.7677 156.977 88.929C157.123 89.0903 157.325 89.2223 157.582 89.325C157.838 89.4203 158.132 89.5083 158.462 89.589C158.865 89.677 159.224 89.776 159.54 89.886C159.862 89.996 160.134 90.139 160.354 90.315C160.574 90.4837 160.742 90.6963 160.86 90.953C160.977 91.2097 161.036 91.5287 161.036 91.91C161.036 92.35 160.911 92.735 160.662 93.065C160.412 93.395 160.082 93.6517 159.672 93.835C159.268 94.0183 158.817 94.11 158.319 94.11Z" fill="#2C7A7B"/>
<path d="M134.116 88.17C134.277 88.17 134.409 88.225 134.512 88.335C134.615 88.4377 134.666 88.5697 134.666 88.731V93.461C134.666 94.1063 134.541 94.6307 134.292 95.034C134.05 95.4373 133.72 95.7307 133.302 95.914C132.891 96.1047 132.426 96.2 131.905 96.2C131.641 96.2 131.377 96.1743 131.113 96.123C130.849 96.079 130.633 96.013 130.464 95.925C130.288 95.8443 130.163 95.7453 130.09 95.628C130.017 95.5107 130.006 95.3823 130.057 95.243C130.108 95.067 130.196 94.946 130.321 94.88C130.446 94.8213 130.574 94.8177 130.706 94.869C130.831 94.9203 130.996 94.9863 131.201 95.067C131.406 95.1477 131.641 95.188 131.905 95.188C132.264 95.188 132.569 95.1293 132.818 95.012C133.067 94.8947 133.254 94.7113 133.379 94.462C133.511 94.2127 133.577 93.89 133.577 93.494V92.735L133.753 92.999C133.636 93.241 133.482 93.4427 133.291 93.604C133.1 93.7653 132.873 93.89 132.609 93.978C132.352 94.066 132.066 94.11 131.751 94.11C131.348 94.11 130.999 94.022 130.706 93.846C130.42 93.6627 130.2 93.4133 130.046 93.098C129.892 92.7753 129.815 92.4087 129.815 91.998V88.731C129.815 88.5697 129.866 88.4377 129.969 88.335C130.072 88.225 130.204 88.17 130.365 88.17C130.519 88.17 130.647 88.225 130.75 88.335C130.86 88.4377 130.915 88.5697 130.915 88.731V91.701C130.915 92.185 131.021 92.5407 131.234 92.768C131.447 92.988 131.762 93.098 132.18 93.098C132.459 93.098 132.701 93.0393 132.906 92.922C133.111 92.8047 133.273 92.6433 133.39 92.438C133.507 92.2253 133.566 91.9797 133.566 91.701V88.731C133.566 88.5697 133.617 88.4377 133.72 88.335C133.83 88.225 133.962 88.17 134.116 88.17ZM147.178 85.86C147.339 85.86 147.471 85.9113 147.574 86.014C147.677 86.1167 147.728 86.2523 147.728 86.421V93.439C147.728 93.6003 147.677 93.736 147.574 93.846C147.471 93.9487 147.339 94 147.178 94C147.024 94 146.892 93.9487 146.782 93.846C146.679 93.736 146.628 93.6003 146.628 93.439V92.647L146.859 92.658C146.859 92.79 146.804 92.9403 146.694 93.109C146.591 93.2703 146.448 93.428 146.265 93.582C146.082 93.736 145.865 93.8643 145.616 93.967C145.367 94.0623 145.099 94.11 144.813 94.11C144.307 94.11 143.852 93.9817 143.449 93.725C143.046 93.461 142.727 93.1053 142.492 92.658C142.257 92.2033 142.14 91.6827 142.14 91.096C142.14 90.5093 142.257 89.9923 142.492 89.545C142.727 89.0903 143.042 88.7347 143.438 88.478C143.841 88.214 144.289 88.082 144.78 88.082C145.088 88.082 145.374 88.1333 145.638 88.236C145.909 88.3387 146.144 88.4707 146.342 88.632C146.54 88.7933 146.694 88.9657 146.804 89.149C146.914 89.325 146.969 89.4937 146.969 89.655L146.628 89.688V86.421C146.628 86.2597 146.679 86.1277 146.782 86.025C146.892 85.915 147.024 85.86 147.178 85.86ZM144.934 93.098C145.286 93.098 145.59 93.01 145.847 92.834C146.111 92.658 146.316 92.4197 146.463 92.119C146.61 91.8183 146.683 91.4773 146.683 91.096C146.683 90.7147 146.61 90.3737 146.463 90.073C146.316 89.7723 146.111 89.534 145.847 89.358C145.583 89.182 145.279 89.094 144.934 89.094C144.597 89.094 144.296 89.182 144.032 89.358C143.775 89.534 143.57 89.7723 143.416 90.073C143.269 90.3737 143.196 90.7147 143.196 91.096C143.196 91.4773 143.269 91.8183 143.416 92.119C143.57 92.4197 143.775 92.658 144.032 92.834C144.296 93.01 144.597 93.098 144.934 93.098ZM153.753 88.214C153.907 88.214 154.035 88.269 154.138 88.379C154.248 88.4817 154.303 88.6137 154.303 88.775V91.668C154.303 92.4307 154.09 93.0283 153.665 93.461C153.24 93.8863 152.638 94.099 151.861 94.099C151.091 94.099 150.493 93.8863 150.068 93.461C149.65 93.0283 149.441 92.4307 149.441 91.668V88.775C149.441 88.6137 149.492 88.4817 149.595 88.379C149.698 88.269 149.83 88.214 149.991 88.214C150.145 88.214 150.273 88.269 150.376 88.379C150.486 88.4817 150.541 88.6137 150.541 88.775V91.668C150.541 92.1447 150.651 92.5003 150.871 92.735C151.098 92.9697 151.428 93.087 151.861 93.087C152.301 93.087 152.635 92.9697 152.862 92.735C153.089 92.5003 153.203 92.1447 153.203 91.668V88.775C153.203 88.6137 153.254 88.4817 153.357 88.379C153.46 88.269 153.592 88.214 153.753 88.214ZM165.182 88.115C165.695 88.115 166.15 88.2433 166.546 88.5C166.949 88.7567 167.268 89.1087 167.503 89.556C167.738 89.996 167.855 90.5093 167.855 91.096C167.855 91.6827 167.738 92.2033 167.503 92.658C167.268 93.1053 166.953 93.4573 166.557 93.714C166.161 93.9707 165.714 94.099 165.215 94.099C164.936 94.099 164.672 94.055 164.423 93.967C164.174 93.879 163.954 93.7653 163.763 93.626C163.572 93.4793 163.415 93.3253 163.29 93.164C163.173 93.0027 163.099 92.8523 163.07 92.713L163.367 92.57V95.639C163.367 95.8003 163.312 95.9323 163.202 96.035C163.099 96.145 162.971 96.2 162.817 96.2C162.656 96.2 162.524 96.145 162.421 96.035C162.318 95.9323 162.267 95.8003 162.267 95.639V88.753C162.267 88.599 162.318 88.467 162.421 88.357C162.524 88.247 162.656 88.192 162.817 88.192C162.971 88.192 163.099 88.247 163.202 88.357C163.312 88.467 163.367 88.599 163.367 88.753V89.512L163.191 89.413C163.213 89.2737 163.283 89.1307 163.4 88.984C163.517 88.83 163.664 88.687 163.84 88.555C164.023 88.423 164.229 88.3167 164.456 88.236C164.691 88.1553 164.933 88.115 165.182 88.115ZM165.061 89.127C164.709 89.127 164.401 89.215 164.137 89.391C163.88 89.5597 163.679 89.7907 163.532 90.084C163.385 90.3773 163.312 90.7147 163.312 91.096C163.312 91.47 163.385 91.811 163.532 92.119C163.679 92.4197 163.88 92.658 164.137 92.834C164.401 93.0027 164.709 93.087 165.061 93.087C165.406 93.087 165.706 93.0027 165.963 92.834C166.22 92.658 166.421 92.4197 166.568 92.119C166.722 91.811 166.799 91.47 166.799 91.096C166.799 90.722 166.722 90.3883 166.568 90.095C166.421 89.7943 166.22 89.5597 165.963 89.391C165.706 89.215 165.406 89.127 165.061 89.127ZM173.84 88.126C174.001 88.126 174.133 88.181 174.236 88.291C174.339 88.3937 174.39 88.5257 174.39 88.687V93.439C174.39 93.6003 174.339 93.736 174.236 93.846C174.133 93.9487 174.001 94 173.84 94C173.686 94 173.554 93.9487 173.444 93.846C173.341 93.736 173.29 93.6003 173.29 93.439V92.647L173.521 92.68C173.521 92.812 173.466 92.9587 173.356 93.12C173.253 93.2813 173.11 93.439 172.927 93.593C172.744 93.7397 172.527 93.8643 172.278 93.967C172.029 94.0623 171.761 94.11 171.475 94.11C170.969 94.11 170.514 93.9817 170.111 93.725C169.708 93.461 169.389 93.1017 169.154 92.647C168.919 92.1923 168.802 91.6753 168.802 91.096C168.802 90.502 168.919 89.9813 169.154 89.534C169.389 89.0793 169.704 88.7237 170.1 88.467C170.503 88.2103 170.951 88.082 171.442 88.082C171.757 88.082 172.047 88.1333 172.311 88.236C172.582 88.3387 172.817 88.4707 173.015 88.632C173.213 88.7933 173.363 88.9657 173.466 89.149C173.576 89.325 173.631 89.4937 173.631 89.655L173.29 89.688V88.687C173.29 88.533 173.341 88.401 173.444 88.291C173.554 88.181 173.686 88.126 173.84 88.126ZM171.596 93.098C171.941 93.098 172.245 93.01 172.509 92.834C172.773 92.658 172.978 92.4197 173.125 92.119C173.272 91.811 173.345 91.47 173.345 91.096C173.345 90.7147 173.272 90.3737 173.125 90.073C172.978 89.7723 172.773 89.534 172.509 89.358C172.245 89.182 171.941 89.094 171.596 89.094C171.259 89.094 170.958 89.182 170.694 89.358C170.437 89.534 170.232 89.7723 170.078 90.073C169.931 90.3737 169.858 90.7147 169.858 91.096C169.858 91.47 169.931 91.811 170.078 92.119C170.232 92.4197 170.437 92.658 170.694 92.834C170.958 93.01 171.259 93.098 171.596 93.098ZM178.494 88.082C178.89 88.082 179.242 88.126 179.55 88.214C179.858 88.2947 180.096 88.412 180.265 88.566C180.441 88.7127 180.529 88.885 180.529 89.083C180.529 89.2077 180.492 89.325 180.419 89.435C180.346 89.5377 180.236 89.589 180.089 89.589C179.986 89.589 179.898 89.5707 179.825 89.534C179.759 89.4973 179.697 89.4533 179.638 89.402C179.579 89.3507 179.506 89.2993 179.418 89.248C179.337 89.204 179.216 89.1673 179.055 89.138C178.901 89.1087 178.762 89.094 178.637 89.094C178.248 89.094 177.911 89.182 177.625 89.358C177.346 89.534 177.126 89.7723 176.965 90.073C176.811 90.3737 176.734 90.7147 176.734 91.096C176.734 91.4773 176.811 91.8183 176.965 92.119C177.126 92.4197 177.343 92.658 177.614 92.834C177.893 93.01 178.215 93.098 178.582 93.098C178.802 93.098 178.982 93.0833 179.121 93.054C179.26 93.0173 179.381 92.9733 179.484 92.922C179.594 92.856 179.686 92.79 179.759 92.724C179.84 92.6507 179.95 92.614 180.089 92.614C180.25 92.614 180.371 92.6653 180.452 92.768C180.54 92.8633 180.584 92.9843 180.584 93.131C180.584 93.2923 180.485 93.45 180.287 93.604C180.096 93.7507 179.84 93.8717 179.517 93.967C179.194 94.0623 178.839 94.11 178.45 94.11C177.878 94.11 177.379 93.978 176.954 93.714C176.536 93.45 176.21 93.0907 175.975 92.636C175.748 92.1813 175.634 91.668 175.634 91.096C175.634 90.5167 175.755 90.0033 175.997 89.556C176.239 89.1013 176.576 88.742 177.009 88.478C177.442 88.214 177.937 88.082 178.494 88.082ZM184.33 94.11C183.722 94.11 183.194 93.9853 182.746 93.736C182.299 93.4793 181.951 93.131 181.701 92.691C181.459 92.2437 181.338 91.734 181.338 91.162C181.338 90.5167 181.467 89.9667 181.723 89.512C181.987 89.05 182.328 88.698 182.746 88.456C183.164 88.2067 183.608 88.082 184.077 88.082C184.437 88.082 184.778 88.1553 185.1 88.302C185.423 88.4413 185.709 88.6393 185.958 88.896C186.215 89.1453 186.417 89.4423 186.563 89.787C186.71 90.1243 186.787 90.4947 186.794 90.898C186.787 91.0447 186.728 91.1657 186.618 91.261C186.508 91.3563 186.38 91.404 186.233 91.404H181.954L181.69 90.469H185.826L185.617 90.667V90.392C185.603 90.1353 185.518 89.9117 185.364 89.721C185.21 89.523 185.02 89.3727 184.792 89.27C184.565 89.16 184.327 89.105 184.077 89.105C183.857 89.105 183.645 89.1417 183.439 89.215C183.241 89.281 183.062 89.391 182.9 89.545C182.746 89.699 182.622 89.9043 182.526 90.161C182.438 90.4103 182.394 90.722 182.394 91.096C182.394 91.4993 182.479 91.8513 182.647 92.152C182.816 92.4527 183.043 92.6873 183.329 92.856C183.615 93.0173 183.931 93.098 184.275 93.098C184.547 93.098 184.77 93.0723 184.946 93.021C185.122 92.9623 185.269 92.8927 185.386 92.812C185.504 92.7313 185.606 92.6543 185.694 92.581C185.804 92.515 185.914 92.482 186.024 92.482C186.156 92.482 186.266 92.5297 186.354 92.625C186.442 92.713 186.486 92.8193 186.486 92.944C186.486 93.1053 186.406 93.252 186.244 93.384C186.046 93.5747 185.771 93.7433 185.419 93.89C185.075 94.0367 184.712 94.11 184.33 94.11Z" fill="#E9153B"/>
<defs>
<filter id="filter0_d_20_33" x="85.6348" y="10.7305" width="45.6562" height="25.9277" filterUnits="userSpaceOnUse" color-interpolation-filters="sRGB">
<feFlood flood-opacity="0" result="BackgroundImageFix"/>
<feColorMatrix in="SourceAlpha" type="matrix" values="0 0 0 0 0 0 0 0 0 0 0 0 0 0 0 0 0 0 127 0" result="hardAlpha"/>
<feOffset dx="4" dy="4"/>
<feGaussianBlur stdDeviation="2"/>
<feComposite in2="hardAlpha" operator="out"/>
<feColorMatrix type="matrix" values="0 0 0 0 0 0 0 0 0 0 0 0 0 0 0 0 0 0 0.25 0"/>
<feBlend mode="normal" in2="BackgroundImageFix" result="effect1_dropShadow_20_33"/>
<feBlend mode="normal" in="SourceGraphic" in2="effect1_dropShadow_20_33" result="shape"/>
</filter>
<linearGradient id="paint0_linear_20_33" x1="100.828" y1="19.7838" x2="99.573" y2="20.2065" gradientUnits="userSpaceOnUse">
<stop stop-color="#787878"/>
<stop offset="0.507799" stop-color="#ACACAC"/>
<stop offset="1" stop-color="#DEDEDE"/>
</linearGradient>
<radialGradient id="paint1_radial_20_33" cx="0" cy="0" r="1" gradientUnits="userSpaceOnUse" gradientTransform="translate(94.8688 21.3204) rotate(159.554) scale(7.0868 4.16209)">
<stop offset="0.125" stop-color="#FFE906"/>
<stop offset="0.275" stop-color="#FEE006"/>
<stop offset="0.386207" stop-color="#FDDA05"/>
<stop offset="0.61" stop-color="#FBCE05"/>
<stop offset="0.805" stop-color="#F9BE04"/>
<stop offset="0.945" stop-color="#F2A905"/>
</radialGradient>
</defs>
</svg>
